<svg width="217" height="56" viewBox="0 0 217 56" fill="none" xmlns="http://www.w3.org/2000/svg">
<path d="M0.929688 26.3355V17.9913C0.929688 17.368 1.26221 16.792 1.80201 16.4804L28.02 1.34347C28.5598 1.03183 29.2248 1.03183 29.7646 1.34347L37.6629 5.90356C38.2027 6.21521 38.5352 6.79116 38.5352 7.41446V15.9768C38.5352 16.6001 38.2027 17.176 37.6629 17.4877L29.6587 22.1089L38.2295 27.0572C38.7693 27.3689 39.1018 27.9448 39.1018 28.5681V37.4707C39.1018 38.094 38.7693 38.67 38.2295 38.9816L10.2063 55.1608L1.802 50.3085C1.26221 49.9969 0.929688 49.4209 0.929688 48.7976V39.8072C0.929688 39.1893 1.25651 38.6175 1.78892 38.3039L10.7615 33.0192L1.802 27.8464C1.26221 27.5348 0.929688 26.9588 0.929688 26.3355Z" fill="url(#paint0_linear_361_3157)"/>
<path d="M10.7615 33.0192L1.78892 38.3039C1.25651 38.6175 0.929688 39.1893 0.929688 39.8072V48.7976C0.929688 49.4209 1.26221 49.9969 1.802 50.3085L10.2063 55.1608L38.2295 38.9816C38.7693 38.67 39.1018 38.094 39.1018 37.4707V28.5681C39.1018 27.9448 38.7693 27.3689 38.2295 27.0572L29.6587 22.1089M10.7615 33.0192L1.802 27.8464C1.26221 27.5348 0.929688 26.9588 0.929688 26.3355V17.9913C0.929688 17.368 1.26221 16.792 1.80201 16.4804L28.02 1.34347C28.5598 1.03183 29.2248 1.03183 29.7646 1.34347L37.6629 5.90356C38.2027 6.21521 38.5352 6.79116 38.5352 7.41446V15.9768C38.5352 16.6001 38.2027 17.176 37.6629 17.4877L29.6587 22.1089M10.7615 33.0192L29.6587 22.1089" stroke="#6C44FA" stroke-width="0.872316"/>
<path d="M71.4837 45.1868C68.3784 45.1868 65.7119 44.6721 63.4842 43.6426C61.2564 42.6131 59.5435 41.1364 58.3452 39.2125C57.147 37.2885 56.5479 34.9764 56.5479 32.2762H63.1044C63.1213 33.7951 63.4673 35.103 64.1424 36.2C64.8174 37.2801 65.7794 38.1071 67.0283 38.6809C68.294 39.2547 69.7961 39.5416 71.5344 39.5416C73.1039 39.5416 74.4709 39.3222 75.6354 38.8834C76.8168 38.4277 77.7281 37.7948 78.3694 36.9848C79.0276 36.1578 79.3567 35.1958 79.3567 34.0988C79.3567 33.2044 79.1204 32.4281 78.6479 31.7699C78.1753 31.1117 77.4243 30.5379 76.3948 30.0484C75.3822 29.559 74.0321 29.1202 72.3444 28.7321L68.294 27.8207C64.5305 26.96 61.7543 25.6858 59.9654 23.9981C58.1765 22.3105 57.282 20.1418 57.282 17.4922C57.282 15.2307 57.8558 13.2646 59.0034 11.5938C60.1679 9.90611 61.7881 8.59817 63.8639 7.66995C65.9566 6.72485 68.3869 6.25231 71.1546 6.25231C73.973 6.25231 76.4033 6.74173 78.4454 7.72058C80.5043 8.68255 82.0992 10.0664 83.2299 11.8722C84.3775 13.6612 84.9851 15.8045 85.0526 18.3023H78.6985C78.5635 16.3108 77.8209 14.7497 76.4708 13.619C75.1206 12.4882 73.3402 11.9229 71.1293 11.9229C69.7454 11.9229 68.5134 12.1507 67.4333 12.6064C66.3532 13.0452 65.5094 13.6612 64.9018 14.4544C64.2943 15.2307 63.9905 16.1336 63.9905 17.1631C63.9905 18.0069 64.2183 18.7411 64.674 19.3655C65.1465 19.9731 65.8807 20.5131 66.8764 20.9857C67.889 21.4582 69.2138 21.8801 70.8508 22.2514L74.6734 23.1374C76.6311 23.5762 78.3188 24.1163 79.7364 24.7576C81.1709 25.382 82.3523 26.1246 83.2805 26.9853C84.2087 27.846 84.8923 28.8333 85.331 29.9472C85.7867 31.061 86.0146 32.3099 86.0146 33.6938C86.0146 36.0397 85.4239 38.0733 84.2425 39.7947C83.0611 41.5161 81.3819 42.8494 79.2048 43.7945C77.0277 44.7227 74.454 45.1868 71.4837 45.1868Z" fill="black"/>
<path d="M94.4465 36.2253V28.6814H95.0794L105.484 17.8466H113.154L100.75 31.0357H99.4842L94.4465 36.2253ZM88.624 44.5793V6.85987H95.0034V44.5793H88.624ZM106.193 44.5793L96.9274 32.4534L101.231 27.9979L113.812 44.5793H106.193Z" fill="black"/>
<path d="M114.346 44.5793V17.8466H120.726V44.5793H114.346Z" fill="black"/>
<path d="M134.651 45.1109C132.339 45.1109 130.305 44.5286 128.55 43.3641C126.812 42.1997 125.461 40.5711 124.499 38.4783C123.554 36.3856 123.082 33.9554 123.082 31.1876C123.082 28.4536 123.563 26.0402 124.525 23.9475C125.487 21.8548 126.837 20.2262 128.575 19.0617C130.313 17.8972 132.322 17.315 134.6 17.315C135.765 17.315 136.845 17.4753 137.84 17.796C138.853 18.0997 139.764 18.5723 140.575 19.2136C141.385 19.8549 142.077 20.665 142.65 21.6438H142.701V6.85987H149.08V44.5793H142.802V40.5035H142.752C142.195 41.533 141.503 42.3937 140.676 43.0857C139.866 43.7607 138.946 44.267 137.916 44.6046C136.904 44.9421 135.815 45.1109 134.651 45.1109ZM136.144 39.7694C137.545 39.7694 138.76 39.4234 139.79 38.7315C140.819 38.0227 141.621 37.027 142.195 35.7443C142.768 34.4448 143.055 32.9259 143.055 31.1876C143.055 29.4493 142.768 27.9389 142.195 26.6562C141.621 25.3736 140.819 24.3779 139.79 23.6691C138.76 22.9602 137.545 22.6058 136.144 22.6058C134.845 22.6058 133.697 22.9434 132.702 23.6184C131.706 24.2766 130.929 25.247 130.373 26.5296C129.816 27.7954 129.537 29.3481 129.537 31.1876C129.537 33.0272 129.816 34.5883 130.373 35.8709C130.929 37.1535 131.706 38.1239 132.702 38.7821C133.697 39.4403 134.845 39.7694 136.144 39.7694Z" fill="black"/>
<path d="M163.006 45.1109C160.694 45.1109 158.66 44.5286 156.905 43.3641C155.166 42.1997 153.816 40.5711 152.854 38.4783C151.909 36.3856 151.437 33.9554 151.437 31.1876C151.437 28.4536 151.918 26.0402 152.88 23.9475C153.842 21.8548 155.192 20.2262 156.93 19.0617C158.668 17.8972 160.677 17.315 162.955 17.315C164.12 17.315 165.2 17.4753 166.195 17.796C167.208 18.0997 168.119 18.5723 168.929 19.2136C169.739 19.8549 170.431 20.665 171.005 21.6438H171.056V6.85987H177.435V44.5793H171.157V40.5035H171.106C170.55 41.533 169.858 42.3937 169.031 43.0857C168.221 43.7607 167.301 44.267 166.271 44.6046C165.259 44.9421 164.17 45.1109 163.006 45.1109ZM164.499 39.7694C165.9 39.7694 167.115 39.4234 168.145 38.7315C169.174 38.0227 169.976 37.027 170.55 35.7443C171.123 34.4448 171.41 32.9259 171.41 31.1876C171.41 29.4493 171.123 27.9389 170.55 26.6562C169.976 25.3736 169.174 24.3779 168.145 23.6691C167.115 22.9602 165.9 22.6058 164.499 22.6058C163.2 22.6058 162.052 22.9434 161.056 23.6184C160.061 24.2766 159.284 25.247 158.727 26.5296C158.171 27.7954 157.892 29.3481 157.892 31.1876C157.892 33.0272 158.171 34.5883 158.727 35.8709C159.284 37.1535 160.061 38.1239 161.056 38.7821C162.052 39.4403 163.2 39.7694 164.499 39.7694Z" fill="black"/>
<path d="M187.411 6.85987V44.5793H181.032V6.85987H187.411Z" fill="black"/>
<path d="M191.844 55.161V49.9714H195.008C195.582 49.9714 196.063 49.8701 196.451 49.6676C196.856 49.4651 197.202 49.1444 197.489 48.7056C197.793 48.2668 198.063 47.7015 198.299 47.0095L199.286 44.4274L188.983 17.8466H195.742L200.653 31.7699C201.159 33.255 201.64 34.7402 202.096 36.2253C202.569 37.6936 203.024 39.1619 203.463 40.6301H201.691C202.113 39.1619 202.56 37.6851 203.033 36.2C203.505 34.7148 203.995 33.2381 204.501 31.7699L209.387 17.8466H216.07L204.121 48.9841C203.581 50.368 202.932 51.5156 202.172 52.4269C201.413 53.3551 200.518 54.0387 199.489 54.4774C198.476 54.9331 197.32 55.161 196.021 55.161C195.345 55.161 194.654 55.161 193.945 55.161C193.236 55.161 192.535 55.161 191.844 55.161Z" fill="black"/>
<path d="M117.536 14.3573C117.536 11.1054 120.172 8.46919 123.424 8.46919C120.172 8.46919 117.536 5.83298 117.536 2.58105C117.536 5.83298 114.9 8.46919 111.648 8.46919C114.9 8.46919 117.536 11.1054 117.536 14.3573Z" fill="#6E47FB"/>
<defs>
<linearGradient id="paint0_linear_361_3157" x1="20.0158" y1="0.839844" x2="20.0158" y2="55.1608" gradientUnits="userSpaceOnUse">
<stop stop-color="#744DFF"/>
<stop offset="1" stop-color="#CCBEFF"/>
</linearGradient>
</defs>
</svg>
