<svg width="19" height="27" viewBox="0 0 19 27" fill="none" xmlns="http://www.w3.org/2000/svg">
<path d="M0.5 12.1855V9.22693C0.5 8.60768 0.828265 8.03483 1.36254 7.72173L12.8036 1.01693C13.3484 0.697699 14.0231 0.6977 14.5678 1.01693L17.3703 2.65927C17.9046 2.97237 18.2328 3.54522 18.2328 4.16447V7.22746C18.2328 7.84672 17.9046 8.41957 17.3703 8.73267L14.0471 10.6801L17.6375 12.7842C18.1717 13.0973 18.5 13.6701 18.5 14.2894V17.5153C18.5 18.1345 18.1717 18.7074 17.6375 19.0205L4.87439 26.5L1.36254 24.4419C0.828264 24.1288 0.5 23.556 0.5 22.9367V19.6635C0.5 19.0497 0.822565 18.4811 1.34941 18.1661L5.13618 15.9022L1.36254 13.6907C0.828264 13.3776 0.5 12.8048 0.5 12.1855Z" fill="url(#paint0_linear_824_3476)"/>
<path d="M5.13618 15.9022L1.34941 18.1661C0.822565 18.4811 0.5 19.0497 0.5 19.6635V22.9367C0.5 23.556 0.828264 24.1288 1.36254 24.4419L4.87439 26.5L17.6375 19.0205C18.1717 18.7074 18.5 18.1345 18.5 17.5153V14.2894C18.5 13.6701 18.1717 13.0973 17.6375 12.7842L14.0471 10.6801M5.13618 15.9022L1.36254 13.6907C0.828264 13.3776 0.5 12.8048 0.5 12.1855V9.22693C0.5 8.60768 0.828265 8.03483 1.36254 7.72173L12.8036 1.01693C13.3484 0.697699 14.0231 0.6977 14.5678 1.01693L17.3703 2.65927C17.9046 2.97237 18.2328 3.54522 18.2328 4.16447V7.22746C18.2328 7.84672 17.9046 8.41957 17.3703 8.73267L14.0471 10.6801M5.13618 15.9022L14.0471 10.6801" stroke="#6C44FA" stroke-width="0.872316"/>
<defs>
<linearGradient id="paint0_linear_824_3476" x1="9.5" y1="0.5" x2="9.5" y2="26.5" gradientUnits="userSpaceOnUse">
<stop stop-color="#744DFF"/>
<stop offset="1" stop-color="#CCBEFF"/>
</linearGradient>
</defs>
</svg>
